<svg width="174" height="20" viewBox="0 0 174 20" fill="none" xmlns="http://www.w3.org/2000/svg">
<path d="M11.5977 7.94141V8.83984C11.5977 9.90755 11.4642 10.8646 11.1973 11.7109C10.9303 12.5573 10.5462 13.2767 10.0449 13.8691C9.54362 14.4616 8.94141 14.9141 8.23828 15.2266C7.54167 15.5391 6.76042 15.6953 5.89453 15.6953C5.05469 15.6953 4.2832 15.5391 3.58008 15.2266C2.88346 14.9141 2.27799 14.4616 1.76367 13.8691C1.25586 13.2767 0.861979 12.5573 0.582031 11.7109C0.302083 10.8646 0.162109 9.90755 0.162109 8.83984V7.94141C0.162109 6.8737 0.298828 5.91992 0.572266 5.08008C0.852214 4.23372 1.24609 3.51432 1.75391 2.92188C2.26172 2.32292 2.86393 1.86719 3.56055 1.55469C4.26367 1.24219 5.03516 1.08594 5.875 1.08594C6.74089 1.08594 7.52214 1.24219 8.21875 1.55469C8.92188 1.86719 9.52409 2.32292 10.0254 2.92188C10.5332 3.51432 10.9206 4.23372 11.1875 5.08008C11.4609 5.91992 11.5977 6.8737 11.5977 7.94141ZM9.73242 8.83984V7.92188C9.73242 7.07552 9.64453 6.32682 9.46875 5.67578C9.29948 5.02474 9.04883 4.47786 8.7168 4.03516C8.38477 3.59245 7.97786 3.25716 7.49609 3.0293C7.02083 2.80143 6.48047 2.6875 5.875 2.6875C5.28906 2.6875 4.75846 2.80143 4.2832 3.0293C3.81445 3.25716 3.41081 3.59245 3.07227 4.03516C2.74023 4.47786 2.48307 5.02474 2.30078 5.67578C2.11849 6.32682 2.02734 7.07552 2.02734 7.92188V8.83984C2.02734 9.69271 2.11849 10.4479 2.30078 11.1055C2.48307 11.7565 2.74349 12.3066 3.08203 12.7559C3.42708 13.1986 3.83398 13.5339 4.30273 13.7617C4.77799 13.9896 5.30859 14.1035 5.89453 14.1035C6.50651 14.1035 7.05013 13.9896 7.52539 13.7617C8.00065 13.5339 8.40104 13.1986 8.72656 12.7559C9.05859 12.3066 9.30924 11.7565 9.47852 11.1055C9.64779 10.4479 9.73242 9.69271 9.73242 8.83984ZM15.9531 6.96484V19.5625H14.1367V4.93359H15.7969L15.9531 6.96484ZM23.0723 10.1289V10.334C23.0723 11.1022 22.9811 11.8151 22.7988 12.4727C22.6165 13.1237 22.3496 13.6901 21.998 14.1719C21.653 14.6536 21.2266 15.028 20.7188 15.2949C20.2109 15.5618 19.6283 15.6953 18.9707 15.6953C18.3001 15.6953 17.7077 15.5846 17.1934 15.3633C16.679 15.1419 16.2428 14.8197 15.8848 14.3965C15.5267 13.9733 15.2402 13.4655 15.0254 12.873C14.8171 12.2806 14.6738 11.6133 14.5957 10.8711V9.77734C14.6738 8.99609 14.8203 8.29622 15.0352 7.67773C15.25 7.05924 15.5332 6.5319 15.8848 6.0957C16.2428 5.65299 16.6758 5.31771 17.1836 5.08984C17.6914 4.85547 18.2773 4.73828 18.9414 4.73828C19.6055 4.73828 20.1947 4.86849 20.709 5.12891C21.2233 5.38281 21.6562 5.7474 22.0078 6.22266C22.3594 6.69792 22.623 7.26758 22.7988 7.93164C22.9811 8.58919 23.0723 9.32161 23.0723 10.1289ZM21.2559 10.334V10.1289C21.2559 9.60156 21.2005 9.10677 21.0898 8.64453C20.9792 8.17578 20.8066 7.76562 20.5723 7.41406C20.3444 7.05599 20.0514 6.77604 19.6934 6.57422C19.3353 6.36589 18.9089 6.26172 18.4141 6.26172C17.9583 6.26172 17.5612 6.33984 17.2227 6.49609C16.8906 6.65234 16.6074 6.86393 16.373 7.13086C16.1387 7.39128 15.9466 7.69076 15.7969 8.0293C15.6536 8.36133 15.5462 8.70638 15.4746 9.06445V11.5938C15.6048 12.0495 15.7871 12.4792 16.0215 12.8828C16.2559 13.2799 16.5684 13.6022 16.959 13.8496C17.3496 14.0905 17.8411 14.2109 18.4336 14.2109C18.9219 14.2109 19.3418 14.11 19.6934 13.9082C20.0514 13.6999 20.3444 13.4167 20.5723 13.0586C20.8066 12.7005 20.9792 12.2904 21.0898 11.8281C21.2005 11.3594 21.2559 10.8613 21.2559 10.334ZM29.7617 15.6953C29.026 15.6953 28.3587 15.5716 27.7598 15.3242C27.1673 15.0703 26.6562 14.7155 26.2266 14.2598C25.8034 13.804 25.4779 13.2637 25.25 12.6387C25.0221 12.0137 24.9082 11.3301 24.9082 10.5879V10.1777C24.9082 9.31836 25.0352 8.55339 25.2891 7.88281C25.543 7.20573 25.888 6.63281 26.3242 6.16406C26.7604 5.69531 27.2552 5.34049 27.8086 5.09961C28.362 4.85872 28.9349 4.73828 29.5273 4.73828C30.2826 4.73828 30.9336 4.86849 31.4805 5.12891C32.0339 5.38932 32.4863 5.75391 32.8379 6.22266C33.1895 6.6849 33.4499 7.23177 33.6191 7.86328C33.7884 8.48828 33.873 9.17188 33.873 9.91406V10.7246H25.9824V9.25H32.0664V9.11328C32.0404 8.64453 31.9427 8.1888 31.7734 7.74609C31.6107 7.30339 31.3503 6.9388 30.9922 6.65234C30.6341 6.36589 30.1458 6.22266 29.5273 6.22266C29.1172 6.22266 28.7396 6.31055 28.3945 6.48633C28.0495 6.6556 27.7533 6.90951 27.5059 7.24805C27.2585 7.58659 27.0664 8 26.9297 8.48828C26.793 8.97656 26.7246 9.53971 26.7246 10.1777V10.5879C26.7246 11.0892 26.793 11.5612 26.9297 12.0039C27.0729 12.4401 27.278 12.8242 27.5449 13.1562C27.8184 13.4883 28.1471 13.7487 28.5312 13.9375C28.9219 14.1263 29.3646 14.2207 29.8594 14.2207C30.4974 14.2207 31.0378 14.0905 31.4805 13.8301C31.9232 13.5697 32.3105 13.2214 32.6426 12.7852L33.7363 13.6543C33.5085 13.9993 33.2188 14.3281 32.8672 14.6406C32.5156 14.9531 32.0827 15.207 31.5684 15.4023C31.0605 15.5977 30.4583 15.6953 29.7617 15.6953ZM37.7891 7.18945V15.5H35.9824V4.93359H37.6914L37.7891 7.18945ZM37.3594 9.81641L36.6074 9.78711C36.6139 9.06445 36.7214 8.39714 36.9297 7.78516C37.138 7.16667 37.431 6.62956 37.8086 6.17383C38.1862 5.7181 38.6354 5.36654 39.1562 5.11914C39.6836 4.86523 40.2663 4.73828 40.9043 4.73828C41.4251 4.73828 41.8939 4.8099 42.3105 4.95312C42.7272 5.08984 43.082 5.3112 43.375 5.61719C43.6745 5.92318 43.9023 6.32031 44.0586 6.80859C44.2148 7.29036 44.293 7.87956 44.293 8.57617V15.5H42.4766V8.55664C42.4766 8.00326 42.3952 7.56055 42.2324 7.22852C42.0697 6.88997 41.832 6.64583 41.5195 6.49609C41.207 6.33984 40.8229 6.26172 40.3672 6.26172C39.918 6.26172 39.5078 6.35612 39.1367 6.54492C38.7721 6.73372 38.4564 6.99414 38.1895 7.32617C37.929 7.6582 37.724 8.03906 37.5742 8.46875C37.431 8.89193 37.3594 9.34115 37.3594 9.81641ZM53.8047 6.96484V19.5625H51.9883V4.93359H53.6484L53.8047 6.96484ZM60.9238 10.1289V10.334C60.9238 11.1022 60.8327 11.8151 60.6504 12.4727C60.4681 13.1237 60.2012 13.6901 59.8496 14.1719C59.5046 14.6536 59.0781 15.028 58.5703 15.2949C58.0625 15.5618 57.4798 15.6953 56.8223 15.6953C56.1517 15.6953 55.5592 15.5846 55.0449 15.3633C54.5306 15.1419 54.0944 14.8197 53.7363 14.3965C53.3783 13.9733 53.0918 13.4655 52.877 12.873C52.6686 12.2806 52.5254 11.6133 52.4473 10.8711V9.77734C52.5254 8.99609 52.6719 8.29622 52.8867 7.67773C53.1016 7.05924 53.3848 6.5319 53.7363 6.0957C54.0944 5.65299 54.5273 5.31771 55.0352 5.08984C55.543 4.85547 56.1289 4.73828 56.793 4.73828C57.457 4.73828 58.0462 4.86849 58.5605 5.12891C59.0749 5.38281 59.5078 5.7474 59.8594 6.22266C60.2109 6.69792 60.4746 7.26758 60.6504 7.93164C60.8327 8.58919 60.9238 9.32161 60.9238 10.1289ZM59.1074 10.334V10.1289C59.1074 9.60156 59.0521 9.10677 58.9414 8.64453C58.8307 8.17578 58.6582 7.76562 58.4238 7.41406C58.196 7.05599 57.903 6.77604 57.5449 6.57422C57.1868 6.36589 56.7604 6.26172 56.2656 6.26172C55.8099 6.26172 55.4128 6.33984 55.0742 6.49609C54.7422 6.65234 54.459 6.86393 54.2246 7.13086C53.9902 7.39128 53.7982 7.69076 53.6484 8.0293C53.5052 8.36133 53.3978 8.70638 53.3262 9.06445V11.5938C53.4564 12.0495 53.6387 12.4792 53.873 12.8828C54.1074 13.2799 54.4199 13.6022 54.8105 13.8496C55.2012 14.0905 55.6927 14.2109 56.2852 14.2109C56.7734 14.2109 57.1934 14.11 57.5449 13.9082C57.903 13.6999 58.196 13.4167 58.4238 13.0586C58.6582 12.7005 58.8307 12.2904 58.9414 11.8281C59.0521 11.3594 59.1074 10.8613 59.1074 10.334ZM62.75 10.334V10.1094C62.75 9.34766 62.8607 8.64128 63.082 7.99023C63.3034 7.33268 63.6224 6.76302 64.0391 6.28125C64.4557 5.79297 64.9603 5.41536 65.5527 5.14844C66.1452 4.875 66.8092 4.73828 67.5449 4.73828C68.2871 4.73828 68.9544 4.875 69.5469 5.14844C70.1458 5.41536 70.6536 5.79297 71.0703 6.28125C71.4935 6.76302 71.8158 7.33268 72.0371 7.99023C72.2585 8.64128 72.3691 9.34766 72.3691 10.1094V10.334C72.3691 11.0957 72.2585 11.8021 72.0371 12.4531C71.8158 13.1042 71.4935 13.6738 71.0703 14.1621C70.6536 14.6439 70.1491 15.0215 69.5566 15.2949C68.9707 15.5618 68.3066 15.6953 67.5645 15.6953C66.8223 15.6953 66.1549 15.5618 65.5625 15.2949C64.9701 15.0215 64.4622 14.6439 64.0391 14.1621C63.6224 13.6738 63.3034 13.1042 63.082 12.4531C62.8607 11.8021 62.75 11.0957 62.75 10.334ZM64.5566 10.1094V10.334C64.5566 10.8613 64.6185 11.3594 64.7422 11.8281C64.8659 12.2904 65.0514 12.7005 65.2988 13.0586C65.5527 13.4167 65.8685 13.6999 66.2461 13.9082C66.6237 14.11 67.0632 14.2109 67.5645 14.2109C68.0592 14.2109 68.4922 14.11 68.8633 13.9082C69.2409 13.6999 69.5534 13.4167 69.8008 13.0586C70.0482 12.7005 70.2337 12.2904 70.3574 11.8281C70.4876 11.3594 70.5527 10.8613 70.5527 10.334V10.1094C70.5527 9.58854 70.4876 9.09701 70.3574 8.63477C70.2337 8.16602 70.0449 7.7526 69.791 7.39453C69.5436 7.02995 69.2311 6.74349 68.8535 6.53516C68.4824 6.32682 68.0462 6.22266 67.5449 6.22266C67.0501 6.22266 66.6139 6.32682 66.2363 6.53516C65.8652 6.74349 65.5527 7.02995 65.2988 7.39453C65.0514 7.7526 64.8659 8.16602 64.7422 8.63477C64.6185 9.09701 64.5566 9.58854 64.5566 10.1094ZM76.4414 6.96484V19.5625H74.625V4.93359H76.2852L76.4414 6.96484ZM83.5605 10.1289V10.334C83.5605 11.1022 83.4694 11.8151 83.2871 12.4727C83.1048 13.1237 82.8379 13.6901 82.4863 14.1719C82.1413 14.6536 81.7148 15.028 81.207 15.2949C80.6992 15.5618 80.1165 15.6953 79.459 15.6953C78.7884 15.6953 78.196 15.5846 77.6816 15.3633C77.1673 15.1419 76.7311 14.8197 76.373 14.3965C76.015 13.9733 75.7285 13.4655 75.5137 12.873C75.3053 12.2806 75.1621 11.6133 75.084 10.8711V9.77734C75.1621 8.99609 75.3086 8.29622 75.5234 7.67773C75.7383 7.05924 76.0215 6.5319 76.373 6.0957C76.7311 5.65299 77.1641 5.31771 77.6719 5.08984C78.1797 4.85547 78.7656 4.73828 79.4297 4.73828C80.0938 4.73828 80.6829 4.86849 81.1973 5.12891C81.7116 5.38281 82.1445 5.7474 82.4961 6.22266C82.8477 6.69792 83.1113 7.26758 83.2871 7.93164C83.4694 8.58919 83.5605 9.32161 83.5605 10.1289ZM81.7441 10.334V10.1289C81.7441 9.60156 81.6888 9.10677 81.5781 8.64453C81.4674 8.17578 81.2949 7.76562 81.0605 7.41406C80.8327 7.05599 80.5397 6.77604 80.1816 6.57422C79.8236 6.36589 79.3971 6.26172 78.9023 6.26172C78.4466 6.26172 78.0495 6.33984 77.7109 6.49609C77.3789 6.65234 77.0957 6.86393 76.8613 7.13086C76.627 7.39128 76.4349 7.69076 76.2852 8.0293C76.1419 8.36133 76.0345 8.70638 75.9629 9.06445V11.5938C76.0931 12.0495 76.2754 12.4792 76.5098 12.8828C76.7441 13.2799 77.0566 13.6022 77.4473 13.8496C77.8379 14.0905 78.3294 14.2109 78.9219 14.2109C79.4102 14.2109 79.8301 14.11 80.1816 13.9082C80.5397 13.6999 80.8327 13.4167 81.0605 13.0586C81.2949 12.7005 81.4674 12.2904 81.5781 11.8281C81.6888 11.3594 81.7441 10.8613 81.7441 10.334ZM89.625 8.71289V10.1973H84.8594V8.71289H89.625ZM97.8574 13.0586V4.93359H99.6738V15.5H97.9453L97.8574 13.0586ZM98.1992 10.832L98.9512 10.8125C98.9512 11.5156 98.8763 12.1667 98.7266 12.7656C98.5833 13.3581 98.349 13.8724 98.0234 14.3086C97.6979 14.7448 97.2715 15.0866 96.7441 15.334C96.2168 15.5749 95.5755 15.6953 94.8203 15.6953C94.306 15.6953 93.834 15.6204 93.4043 15.4707C92.9811 15.321 92.6165 15.0898 92.3105 14.7773C92.0046 14.4648 91.7669 14.0579 91.5977 13.5566C91.4349 13.0553 91.3535 12.4531 91.3535 11.75V4.93359H93.1602V11.7695C93.1602 12.2448 93.2122 12.6387 93.3164 12.9512C93.4271 13.2572 93.5736 13.5013 93.7559 13.6836C93.9447 13.8594 94.153 13.9831 94.3809 14.0547C94.6152 14.1263 94.8561 14.1621 95.1035 14.1621C95.8717 14.1621 96.4805 14.0156 96.9297 13.7227C97.3789 13.4232 97.7012 13.0228 97.8965 12.5215C98.0983 12.0137 98.1992 11.4505 98.1992 10.832ZM104.234 6.96484V19.5625H102.418V4.93359H104.078L104.234 6.96484ZM111.354 10.1289V10.334C111.354 11.1022 111.262 11.8151 111.08 12.4727C110.898 13.1237 110.631 13.6901 110.279 14.1719C109.934 14.6536 109.508 15.028 109 15.2949C108.492 15.5618 107.91 15.6953 107.252 15.6953C106.581 15.6953 105.989 15.5846 105.475 15.3633C104.96 15.1419 104.524 14.8197 104.166 14.3965C103.808 13.9733 103.521 13.4655 103.307 12.873C103.098 12.2806 102.955 11.6133 102.877 10.8711V9.77734C102.955 8.99609 103.102 8.29622 103.316 7.67773C103.531 7.05924 103.814 6.5319 104.166 6.0957C104.524 5.65299 104.957 5.31771 105.465 5.08984C105.973 4.85547 106.559 4.73828 107.223 4.73828C107.887 4.73828 108.476 4.86849 108.99 5.12891C109.505 5.38281 109.938 5.7474 110.289 6.22266C110.641 6.69792 110.904 7.26758 111.08 7.93164C111.262 8.58919 111.354 9.32161 111.354 10.1289ZM109.537 10.334V10.1289C109.537 9.60156 109.482 9.10677 109.371 8.64453C109.26 8.17578 109.088 7.76562 108.854 7.41406C108.626 7.05599 108.333 6.77604 107.975 6.57422C107.617 6.36589 107.19 6.26172 106.695 6.26172C106.24 6.26172 105.842 6.33984 105.504 6.49609C105.172 6.65234 104.889 6.86393 104.654 7.13086C104.42 7.39128 104.228 7.69076 104.078 8.0293C103.935 8.36133 103.827 8.70638 103.756 9.06445V11.5938C103.886 12.0495 104.068 12.4792 104.303 12.8828C104.537 13.2799 104.85 13.6022 105.24 13.8496C105.631 14.0905 106.122 14.2109 106.715 14.2109C107.203 14.2109 107.623 14.11 107.975 13.9082C108.333 13.6999 108.626 13.4167 108.854 13.0586C109.088 12.7005 109.26 12.2904 109.371 11.8281C109.482 11.3594 109.537 10.8613 109.537 10.334ZM118.609 0.5H120.426V13.4492L120.27 15.5H118.609V0.5ZM127.564 10.1289V10.334C127.564 11.1022 127.473 11.8151 127.291 12.4727C127.109 13.1237 126.842 13.6901 126.49 14.1719C126.139 14.6536 125.709 15.028 125.201 15.2949C124.693 15.5618 124.111 15.6953 123.453 15.6953C122.783 15.6953 122.193 15.5814 121.686 15.3535C121.184 15.1191 120.761 14.7839 120.416 14.3477C120.071 13.9115 119.794 13.3841 119.586 12.7656C119.384 12.1471 119.244 11.4505 119.166 10.6758V9.77734C119.244 8.99609 119.384 8.29622 119.586 7.67773C119.794 7.05924 120.071 6.5319 120.416 6.0957C120.761 5.65299 121.184 5.31771 121.686 5.08984C122.187 4.85547 122.77 4.73828 123.434 4.73828C124.098 4.73828 124.687 4.86849 125.201 5.12891C125.715 5.38281 126.145 5.7474 126.49 6.22266C126.842 6.69792 127.109 7.26758 127.291 7.93164C127.473 8.58919 127.564 9.32161 127.564 10.1289ZM125.748 10.334V10.1289C125.748 9.60156 125.699 9.10677 125.602 8.64453C125.504 8.17578 125.348 7.76562 125.133 7.41406C124.918 7.05599 124.635 6.77604 124.283 6.57422C123.932 6.36589 123.499 6.26172 122.984 6.26172C122.529 6.26172 122.132 6.33984 121.793 6.49609C121.461 6.65234 121.178 6.86393 120.943 7.13086C120.709 7.39128 120.517 7.69076 120.367 8.0293C120.224 8.36133 120.117 8.70638 120.045 9.06445V11.418C120.149 11.8737 120.318 12.3132 120.553 12.7363C120.794 13.153 121.113 13.4948 121.51 13.7617C121.913 14.0286 122.411 14.1621 123.004 14.1621C123.492 14.1621 123.909 14.0645 124.254 13.8691C124.605 13.6673 124.889 13.3906 125.104 13.0391C125.325 12.6875 125.488 12.2806 125.592 11.8184C125.696 11.3561 125.748 10.8613 125.748 10.334ZM136.314 13.0586V4.93359H138.131V15.5H136.402L136.314 13.0586ZM136.656 10.832L137.408 10.8125C137.408 11.5156 137.333 12.1667 137.184 12.7656C137.04 13.3581 136.806 13.8724 136.48 14.3086C136.155 14.7448 135.729 15.0866 135.201 15.334C134.674 15.5749 134.033 15.6953 133.277 15.6953C132.763 15.6953 132.291 15.6204 131.861 15.4707C131.438 15.321 131.074 15.0898 130.768 14.7773C130.462 14.4648 130.224 14.0579 130.055 13.5566C129.892 13.0553 129.811 12.4531 129.811 11.75V4.93359H131.617V11.7695C131.617 12.2448 131.669 12.6387 131.773 12.9512C131.884 13.2572 132.031 13.5013 132.213 13.6836C132.402 13.8594 132.61 13.9831 132.838 14.0547C133.072 14.1263 133.313 14.1621 133.561 14.1621C134.329 14.1621 134.938 14.0156 135.387 13.7227C135.836 13.4232 136.158 13.0228 136.354 12.5215C136.555 12.0137 136.656 11.4505 136.656 10.832ZM145.309 4.93359V6.32031H139.596V4.93359H145.309ZM141.529 2.36523H143.336V12.8828C143.336 13.2409 143.391 13.5111 143.502 13.6934C143.613 13.8757 143.756 13.9961 143.932 14.0547C144.107 14.1133 144.296 14.1426 144.498 14.1426C144.648 14.1426 144.804 14.1296 144.967 14.1035C145.136 14.071 145.263 14.0449 145.348 14.0254L145.357 15.5C145.214 15.5456 145.025 15.5879 144.791 15.627C144.563 15.6725 144.286 15.6953 143.961 15.6953C143.518 15.6953 143.111 15.6074 142.74 15.4316C142.369 15.2559 142.073 14.9629 141.852 14.5527C141.637 14.1361 141.529 13.5762 141.529 12.873V2.36523ZM151.852 4.93359V6.32031H146.139V4.93359H151.852ZM148.072 2.36523H149.879V12.8828C149.879 13.2409 149.934 13.5111 150.045 13.6934C150.156 13.8757 150.299 13.9961 150.475 14.0547C150.65 14.1133 150.839 14.1426 151.041 14.1426C151.191 14.1426 151.347 14.1296 151.51 14.1035C151.679 14.071 151.806 14.0449 151.891 14.0254L151.9 15.5C151.757 15.5456 151.568 15.5879 151.334 15.627C151.106 15.6725 150.829 15.6953 150.504 15.6953C150.061 15.6953 149.654 15.6074 149.283 15.4316C148.912 15.2559 148.616 14.9629 148.395 14.5527C148.18 14.1361 148.072 13.5762 148.072 12.873V2.36523ZM153.297 10.334V10.1094C153.297 9.34766 153.408 8.64128 153.629 7.99023C153.85 7.33268 154.169 6.76302 154.586 6.28125C155.003 5.79297 155.507 5.41536 156.1 5.14844C156.692 4.875 157.356 4.73828 158.092 4.73828C158.834 4.73828 159.501 4.875 160.094 5.14844C160.693 5.41536 161.201 5.79297 161.617 6.28125C162.04 6.76302 162.363 7.33268 162.584 7.99023C162.805 8.64128 162.916 9.34766 162.916 10.1094V10.334C162.916 11.0957 162.805 11.8021 162.584 12.4531C162.363 13.1042 162.04 13.6738 161.617 14.1621C161.201 14.6439 160.696 15.0215 160.104 15.2949C159.518 15.5618 158.854 15.6953 158.111 15.6953C157.369 15.6953 156.702 15.5618 156.109 15.2949C155.517 15.0215 155.009 14.6439 154.586 14.1621C154.169 13.6738 153.85 13.1042 153.629 12.4531C153.408 11.8021 153.297 11.0957 153.297 10.334ZM155.104 10.1094V10.334C155.104 10.8613 155.165 11.3594 155.289 11.8281C155.413 12.2904 155.598 12.7005 155.846 13.0586C156.1 13.4167 156.415 13.6999 156.793 13.9082C157.171 14.11 157.61 14.2109 158.111 14.2109C158.606 14.2109 159.039 14.11 159.41 13.9082C159.788 13.6999 160.1 13.4167 160.348 13.0586C160.595 12.7005 160.781 12.2904 160.904 11.8281C161.035 11.3594 161.1 10.8613 161.1 10.334V10.1094C161.1 9.58854 161.035 9.09701 160.904 8.63477C160.781 8.16602 160.592 7.7526 160.338 7.39453C160.09 7.02995 159.778 6.74349 159.4 6.53516C159.029 6.32682 158.593 6.22266 158.092 6.22266C157.597 6.22266 157.161 6.32682 156.783 6.53516C156.412 6.74349 156.1 7.02995 155.846 7.39453C155.598 7.7526 155.413 8.16602 155.289 8.63477C155.165 9.09701 155.104 9.58854 155.104 10.1094ZM166.988 7.18945V15.5H165.182V4.93359H166.891L166.988 7.18945ZM166.559 9.81641L165.807 9.78711C165.813 9.06445 165.921 8.39714 166.129 7.78516C166.337 7.16667 166.63 6.62956 167.008 6.17383C167.385 5.7181 167.835 5.36654 168.355 5.11914C168.883 4.86523 169.465 4.73828 170.104 4.73828C170.624 4.73828 171.093 4.8099 171.51 4.95312C171.926 5.08984 172.281 5.3112 172.574 5.61719C172.874 5.92318 173.102 6.32031 173.258 6.80859C173.414 7.29036 173.492 7.87956 173.492 8.57617V15.5H171.676V8.55664C171.676 8.00326 171.594 7.56055 171.432 7.22852C171.269 6.88997 171.031 6.64583 170.719 6.49609C170.406 6.33984 170.022 6.26172 169.566 6.26172C169.117 6.26172 168.707 6.35612 168.336 6.54492C167.971 6.73372 167.656 6.99414 167.389 7.32617C167.128 7.6582 166.923 8.03906 166.773 8.46875C166.63 8.89193 166.559 9.34115 166.559 9.81641Z" fill="white"/>
</svg>
